PathFileType  4	(X/Y/Z) C:\Users\antoi\Documents\MyRepositories\mobilecap\ResultsAnalysis
DataRate	CameraRate	NumFrames	NumMarkers	Units	OrigDataRate	OrigDataStartFrame	OrigNumFrames
100.0	100.0	6	51	mm	100.0	1	163
Frame#	Time	r_knee			r_shank_antsup			r_ankle			r_calc			r_5meta			r_toe			L_knee			L_shank_antsup			L_ankle			L_calc			L_5meta			L_toe			r_sh2			r_sh3			r_sh4			L_sh2			L_sh3			r_thigh1			r_thigh2			r_thigh3			r_thigh4			r_thigh5			L_thigh1			L_thigh2			L_thigh3			L_thigh4			r.ASIS			r.PSIS			L.ASIS			L.PSIS			C7			R_Shoulder			L_Shoulder			R_Sternum			L_Sternum			R_humerus			R_elbow_med			R_elbow_lat			R_forearm			R_wrist_radius			R_wrist_ulna			L_humerus			L_elbow_med			L_elbow_lat			L_forearm			L_wrist_radius			L_wrist_ulna			R_HJC			L_HJC			R_HJC_reg			L_HJC_reg			
		X1	Y1	Z1	X2	Y2	Z2	X3	Y3	Z3	X4	Y4	Z4	X5	Y5	Z5	X6	Y6	Z6	X7	Y7	Z7	X8	Y8	Z8	X9	Y9	Z9	X10	Y10	Z10	X11	Y11	Z11	X12	Y12	Z12	X13	Y13	Z13	X14	Y14	Z14	X15	Y15	Z15	X16	Y16	Z16	X17	Y17	Z17	X18	Y18	Z18	X19	Y19	Z19	X20	Y20	Z20	X21	Y21	Z21	X22	Y22	Z22	X23	Y23	Z23	X24	Y24	Z24	X25	Y25	Z25	X26	Y26	Z26	X27	Y27	Z27	X28	Y28	Z28	X29	Y29	Z29	X30	Y30	Z30	X31	Y31	Z31	X32	Y32	Z32	X33	Y33	Z33	X34	Y34	Z34	X35	Y35	Z35	X36	Y36	Z36	X37	Y37	Z37	X38	Y38	Z38	X39	Y39	Z39	X40	Y40	Z40	X41	Y41	Z41	X42	Y42	Z42	X43	Y43	Z43	X44	Y44	Z44	X45	Y45	Z45	X46	Y46	Z46	X47	Y47	Z47	X48	Y48	Z48	X49	Y49	Z49	X50	Y50	Z50	X51	Y51	Z51	

1	0.00000000	39.34631	540.18131	-171.78713	104.83398	432.98884	-180.85498	110.79729	90.56948	-204.93686	60.67111	52.52398	-261.24233	255.46603	49.53279	-155.22172	288.03862	94.56911	-218.12804	-287.88278	539.77315	-482.83435	-291.89683	426.39345	-465.95843	-504.00161	134.86422	-442.03152	-570.97452	126.12332	-389.66557	-384.63163	29.46630	-462.04200	-348.33234	49.76380	-395.04825	137.93913	325.52635	-204.23969	41.81194	403.53322	-141.96781	82.15040	293.35978	-150.73650	-369.68420	455.66718	-502.66356	-395.46723	337.16696	-511.50542	51.17511	785.19063	-179.74216	86.90466	680.55925	-197.31838	66.96177	640.59124	-144.59948	-28.76074	745.71236	-109.19049	11.32489	637.10596	-134.27753	-121.90325	750.64234	-509.66343	-158.42013	620.50039	-495.03355	-228.68867	776.03077	-535.33508	-266.90465	644.59675	-510.03843	-48.22402	1014.55972	-180.59071	-246.10609	1055.89457	-276.65222	-31.01710	998.31482	-447.16774	-239.70766	1059.95774	-372.16676	-133.23188	1545.99977	-384.31158	-91.56003	1496.33909	-182.05787	-52.85773	1450.44953	-539.77087	-8.60569	1454.81359	-332.25207	-7.17353	1444.93299	-379.00070	-111.12846	1337.87299	-87.41540	-219.11651	1127.07467	-106.35778	-199.33681	1156.74818	-30.40257	-110.76544	1005.90350	-4.67642	-83.89190	888.17352	16.90414	-115.52726	883.42729	46.26255	-32.14091	1273.02814	-594.04086	-107.97503	1058.18143	-565.01771	-53.14127	1072.84825	-621.26323	54.48283	968.33955	-539.69699	117.41377	866.85970	-523.78030	99.78009	849.04147	-566.32470	-133.61618	938.32719	-216.97587	-121.01948	918.09498	-429.03176	-121.51738	923.78353	-226.96519	-109.72161	931.27407	-403.04407	
2	0.01000000	53.94482	541.87273	-171.38493	118.39648	432.80184	-182.59436	114.26376	90.86512	-204.41887	62.64125	54.72982	-261.12043	256.58607	45.67296	-154.58550	291.24068	88.83047	-217.85037	-275.29545	539.16979	-483.97337	-281.14222	425.46578	-467.30226	-500.18638	138.64317	-443.87988	-567.43208	132.37750	-391.47868	-384.04034	29.13531	-462.25246	-347.20088	49.69814	-395.49891	149.20334	324.95068	-205.67586	57.15243	405.14881	-141.13243	94.66979	293.99474	-150.16732	-358.39284	456.55012	-503.76504	-386.85186	338.81687	-512.87712	64.22944	786.36834	-179.04638	100.13089	681.69499	-196.83084	80.27956	641.65728	-144.12083	-15.93129	746.46821	-108.78213	24.57842	638.12735	-133.96746	-109.92672	750.57689	-510.30228	-145.97166	620.19585	-496.15877	-216.43111	775.48043	-535.23712	-254.33170	643.87017	-510.63780	-35.41858	1014.66028	-180.59828	-234.32894	1055.75799	-275.79976	-18.32930	998.62415	-447.33554	-228.10982	1059.20982	-371.49032	-122.04839	1546.73668	-378.30464	-80.87568	1493.74520	-176.66899	-41.74153	1453.33799	-535.22032	2.30048	1454.98451	-327.39065	4.25529	1446.02699	-374.28919	-99.70775	1333.89397	-84.25650	-206.08378	1122.51748	-105.54662	-187.00308	1151.77447	-29.34235	-98.37477	1000.86392	-4.25784	-71.47316	883.11232	16.58350	-103.22118	878.11619	45.70868	-23.03561	1275.56431	-591.20137	-103.04173	1062.03742	-565.29085	-47.54567	1076.28685	-621.15178	55.97473	966.93660	-541.25636	115.07004	863.16195	-527.32689	98.53235	847.19898	-570.50628	-120.73348	938.22941	-216.67220	-108.61093	918.07795	-428.76326	-108.89965	924.63758	-226.33309	-97.44553	930.99774	-402.56297	
3	0.02000000	68.49385	543.53641	-170.97503	131.64042	432.51482	-184.07346	117.56107	91.17718	-204.01609	64.49915	56.80577	-261.02532	257.61770	42.24055	-153.99562	294.21990	83.42671	-217.68659	-262.27447	538.53809	-485.18786	-270.01912	424.52145	-468.74375	-496.03049	142.58645	-445.71446	-563.46748	138.90587	-393.24099	-383.37756	28.83019	-462.45020	-346.03752	49.56678	-395.93772	160.01404	324.24107	-206.98518	71.95790	406.60474	-140.36124	106.58529	294.52439	-149.65149	-346.72536	457.48291	-504.87623	-377.95554	340.56634	-514.28545	77.37412	787.79553	-178.36965	113.51635	683.13969	-196.32591	93.83675	643.02079	-143.59482	-2.94463	747.44441	-108.30078	38.08481	639.36645	-133.55065	-97.73181	750.60761	-510.89176	-133.16135	619.94548	-497.25306	-204.01507	774.93403	-535.10382	-241.45633	643.11772	-511.22307	-22.59247	1014.99827	-180.54063	-222.50223	1055.69679	-274.98284	-5.76318	999.05621	-447.45609	-216.47948	1058.60073	-370.85369	-110.80508	1547.57129	-372.31501	-70.13182	1491.33560	-171.33138	-30.48573	1456.38430	-530.65159	13.27666	1455.26097	-322.53558	15.75851	1447.20955	-369.56959	-88.20312	1330.12823	-81.14485	-192.99684	1118.21079	-104.82219	-174.59526	1147.02592	-28.34078	-85.91746	996.06328	-3.87077	-59.01766	878.27231	16.25514	-90.89969	873.03153	45.12941	-13.91876	1278.31508	-588.45941	-98.13187	1066.20010	-565.39132	-42.02374	1079.97360	-620.95497	57.39689	965.80875	-542.90454	112.60029	859.78231	-531.05136	97.01825	845.65931	-574.84271	-107.83313	938.32132	-216.32126	-96.19037	918.16365	-428.43965	-96.21002	925.52542	-225.67610	-85.12888	930.87207	-402.06461	
4	0.03000000	82.85479	545.10838	-170.55685	144.26573	432.04711	-185.10171	120.56161	91.50833	-203.81268	66.15029	58.65107	-260.97882	258.49794	39.52922	-153.48839	296.81317	78.60564	-217.70793	-248.44118	537.84185	-486.54620	-258.20207	423.54705	-470.37282	-491.22295	146.83575	-447.52249	-558.70698	145.94753	-394.90541	-382.58104	28.58468	-462.62313	-344.80769	49.31532	-396.34856	170.00633	323.29899	-208.06329	85.74306	407.76604	-139.71058	117.39892	294.85757	-149.23872	-334.34330	458.49899	-506.01334	-368.52395	342.50089	-515.76315	90.65209	789.58323	-177.70341	127.11465	685.02509	-195.77574	107.71165	644.81166	-142.98260	10.27405	748.75713	-107.70236	51.92914	640.92431	-132.95380	-85.12461	750.79916	-511.40549	-119.67380	619.77843	-498.31365	-191.29714	774.37964	-534.91919	-228.01102	642.29921	-511.80433	-9.74375	1015.74711	-180.36610	-210.58447	1055.75971	-274.22100	6.59604	999.70270	-447.48875	-204.79346	1058.23627	-370.27685	-99.46309	1548.57799	-366.35728	-59.27975	1489.25106	-166.08324	-18.97880	1459.70432	-526.04428	24.37330	1455.71945	-317.69265	27.36212	1448.53372	-364.83637	-76.55378	1326.74482	-78.11344	-179.81408	1114.35286	-104.24599	-162.06531	1142.68366	-27.43843	-73.34782	991.69062	-3.53890	-46.49299	873.83387	15.91132	-78.54273	868.35759	44.50300	-4.78014	1281.44727	-585.88005	-93.25912	1070.91043	-565.17992	-36.63719	1084.10238	-620.60343	58.69043	965.17981	-544.72063	109.90159	856.98535	-535.10284	95.02397	844.67707	-579.45827	-94.90511	938.73886	-215.88493	-83.74712	918.43043	-428.01703	-83.38870	926.45816	-224.97556	-72.74511	931.01323	-401.53612	
5	0.04000000	96.76381	546.48156	-170.13720	156.01318	431.35182	-185.60309	123.19701	91.84421	-203.84343	67.53070	60.21226	-260.99408	259.19791	37.63400	-153.08099	298.94590	74.48981	-217.91673	-233.52079	537.03424	-488.10150	-245.44536	422.53415	-472.25920	-485.50782	151.49673	-449.29241	-552.85891	153.67822	-396.43566	-381.59973	28.45547	-462.76277	-343.46752	48.92273	-396.71153	178.95925	322.08515	-208.84899	98.13047	408.54692	-139.22388	126.79493	294.93394	-148.96851	-320.97935	459.60344	-507.20248	-358.34487	344.67321	-517.33393	104.02023	791.63307	-177.00399	140.80843	687.21779	-195.14498	121.73173	646.90819	-142.26490	23.66000	750.36330	-106.98572	65.93423	642.72573	-132.16137	-71.96469	751.16823	-511.85268	-105.28447	619.68893	-499.38145	-178.17015	773.78066	-534.69630	-213.79768	641.35553	-512.42742	3.09967	1016.97435	-180.04854	-198.55742	1055.95978	-273.50555	18.69291	1000.59703	-447.40279	-193.05136	1058.16863	-369.74601	-88.02335	1549.79208	-360.44584	-48.29515	1487.56170	-160.94821	-7.17287	1463.34365	-521.38191	35.60145	1456.39045	-312.87257	39.02380	1450.00256	-360.09341	-64.74247	1323.84067	-75.17380	-166.52442	1111.05709	-103.83666	-149.41183	1138.85663	-26.64634	-60.65720	987.85636	-3.27294	-33.87941	869.91034	15.54358	-66.12993	864.20859	43.81486	4.38283	1285.04555	-583.47915	-88.42338	1076.29356	-564.57521	-31.42903	1088.77588	-620.05927	59.81967	965.19009	-546.76520	106.91793	854.95013	-539.57814	92.43050	844.42811	-584.42377	-81.96209	939.53329	-215.33676	-71.29618	918.91148	-427.46636	-70.41650	927.41879	-224.22203	-60.30699	931.47637	-400.96684	
6	0.05000000	109.88415	547.53287	-169.72383	166.70105	430.41942	-185.62470	125.45237	92.16175	-204.09572	68.61159	61.48631	-261.07418	259.71569	36.47578	-152.76936	300.62396	71.09248	-218.25217	-217.34758	536.05801	-489.88747	-231.58266	421.47527	-474.44126	-478.69180	156.64859	-451.01624	-545.71839	162.21224	-397.81713	-380.38980	28.53952	-462.86971	-341.95710	48.42909	-397.00981	186.81213	320.62239	-209.33747	108.91508	408.92664	-138.93134	134.67399	294.73688	-148.86447	-306.43596	460.76959	-508.48100	-347.22529	347.08261	-519.00991	117.35456	793.66410	-176.20687	154.33101	689.35918	-194.40500	135.50991	648.97265	-141.45116	37.01533	752.07741	-106.18619	79.69450	644.54289	-131.22329	-58.17178	751.68794	-512.27577	-89.86704	619.64291	-500.54207	-164.56462	773.07505	-534.47438	-198.68919	640.21217	-513.17186	15.90017	1018.63852	-179.59376	-186.42458	1056.28743	-272.79312	30.47268	1001.70179	-447.17612	-181.27179	1058.39616	-369.20908	-76.52128	1551.20923	-354.59293	-37.17278	1486.26297	-155.93802	4.89944	1467.27929	-516.65806	46.93555	1457.26121	-308.09321	50.66644	1451.58430	-355.35597	-52.78833	1321.43396	-72.31403	-153.14511	1108.34547	-103.56591	-136.67060	1135.57335	-25.94395	-47.86305	984.58798	-3.06901	-21.16025	866.53973	15.14082	-53.63525	860.61862	43.05836	13.56992	1289.10799	-581.22328	-83.60545	1082.34912	-563.55821	-26.41663	1094.00527	-619.32314	60.78224	965.89332	-549.07822	103.64805	853.76591	-544.51869	89.22602	845.00620	-589.75705	-69.03713	940.67543	-214.65629	-58.89947	919.58593	-426.76740	-57.32955	928.37880	-223.41180	-47.87766	932.24744	-400.33822	
